<?xml version="1.0" standalone="no"?>
<!DOCTYPE svg PUBLIC "-//W3C//DTD SVG 20010904//EN"
 "http://www.w3.org/TR/2001/REC-SVG-20010904/DTD/svg10.dtd">
<svg version="1.0" xmlns="http://www.w3.org/2000/svg"
 width="700.000000pt" height="700.000000pt" viewBox="0 0 700.000000 700.000000"
 preserveAspectRatio="xMidYMid meet">
<metadata>
Created by potrace 1.14, written by Peter Selinger 2001-2017
</metadata>
<g transform="translate(0.000000,700.000000) scale(0.100000,-0.100000)"
fill="#000000" stroke="none">
<path d="M3167 6305 c-1303 -158 -2320 -1179 -2472 -2481 -19 -166 -19 -482 0
-648 153 -1306 1175 -2328 2481 -2481 166 -19 482 -19 648 0 1306 153 2328
1175 2481 2481 19 166 19 482 0 648 -153 1309 -1174 2328 -2485 2481 -153 18
-502 18 -653 0z m718 -214 c972 -147 1780 -821 2097 -1750 93 -272 133 -526
133 -841 0 -165 -5 -259 -19 -355 -82 -575 -337 -1087 -745 -1496 -407 -407
-921 -663 -1496 -745 -181 -26 -529 -26 -710 0 -574 81 -1087 337 -1496 745
-477 477 -741 1086 -766 1769 l-6 173 29 -6 c68 -15 161 -45 180 -59 18 -13
22 -28 26 -84 4 -76 11 -92 136 -317 105 -188 168 -238 255 -201 51 21 81 69
117 186 38 124 61 172 106 222 18 21 50 62 70 93 20 30 40 55 44 55 4 0 22
-37 40 -82 49 -122 67 -155 113 -205 69 -75 195 -123 323 -123 160 0 234 73
273 268 14 75 27 113 46 138 30 39 32 40 169 115 121 66 229 162 262 234 28
59 31 128 9 203 -9 29 -13 57 -10 62 11 17 98 57 150 68 28 6 91 16 140 22
168 20 253 56 324 137 60 67 75 124 67 248 -6 82 -4 104 7 113 14 12 94 25
357 59 142 18 206 20 420 13 118 -3 182 11 284 62 119 60 255 166 308 241 71
100 22 214 -114 265 -79 30 -122 34 -369 36 l-224 2 -105 36 c-175 61 -189 62
-675 59 -359 -2 -459 0 -545 13 -157 24 -326 70 -452 123 -110 46 -116 47
-218 48 -98 0 -114 -3 -234 -43 -122 -41 -293 -71 -317 -56 -19 11 163 141
338 242 330 188 669 292 1098 336 100 10 455 -4 580 -23z m-1346 -685 c146
-63 301 -106 511 -142 91 -16 167 -19 585 -19 l480 0 125 -42 c156 -51 262
-65 446 -56 134 6 234 -1 234 -15 0 -14 -143 -112 -207 -143 -81 -38 -150 -46
-286 -30 -85 10 -119 10 -202 -3 -55 -8 -179 -24 -275 -36 -212 -25 -277 -42
-328 -86 -74 -63 -95 -140 -78 -289 7 -53 5 -64 -14 -88 -34 -43 -71 -57 -218
-78 -172 -24 -252 -48 -329 -98 -71 -46 -107 -89 -123 -149 -12 -46 -9 -75 17
-156 13 -40 13 -52 2 -73 -19 -35 -116 -106 -220 -159 -179 -92 -241 -181
-274 -389 -14 -90 -47 -102 -169 -65 -77 24 -78 26 -146 180 -77 177 -127 225
-230 225 -75 0 -117 -28 -188 -124 -31 -42 -68 -89 -83 -106 -42 -46 -94 -137
-113 -200 l-18 -56 -45 78 c-78 134 -83 145 -83 198 0 155 -85 232 -312 286
-113 26 -106 14 -83 159 82 505 321 984 685 1373 68 73 74 77 90 62 42 -38
277 -43 420 -9 35 8 110 30 165 49 127 44 162 44 264 1z"/>
<path d="M2854 3396 c-41 -18 -64 -44 -134 -146 -58 -87 -88 -115 -170 -163
-70 -40 -158 -124 -190 -181 -54 -93 -35 -157 70 -237 44 -34 82 -74 106 -112
43 -68 83 -97 134 -97 70 0 124 54 225 220 31 52 68 105 81 116 12 12 67 39
121 60 70 27 110 50 142 79 40 38 45 47 49 98 3 44 0 66 -17 101 -32 66 -174
196 -262 240 -77 39 -107 43 -155 22z m153 -267 c72 -62 72 -63 -10 -93 -118
-43 -167 -82 -236 -188 -92 -144 -77 -136 -145 -72 -57 55 -58 55 -40 76 11
12 57 45 103 75 96 63 152 117 207 202 44 67 42 67 121 0z"/>
<path d="M3432 2696 c-36 -34 -37 -36 -37 -106 l0 -71 -75 8 c-188 20 -347 -4
-494 -77 -220 -107 -326 -252 -326 -445 0 -82 44 -275 78 -342 64 -124 222
-166 433 -115 153 37 175 38 270 5 50 -18 122 -55 178 -92 124 -81 200 -105
324 -99 81 3 102 8 167 40 93 44 152 95 202 172 82 127 101 288 53 433 -40
117 -84 173 -201 251 -82 55 -105 84 -150 194 -32 79 -48 103 -104 159 -80 81
-153 119 -227 119 -47 0 -58 -4 -91 -34z m243 -347 c46 -112 99 -179 190 -242
94 -63 131 -105 149 -168 42 -141 -9 -274 -132 -347 -40 -23 -58 -27 -122 -27
-83 0 -111 12 -223 88 -34 24 -105 60 -157 81 -131 52 -212 57 -373 22 -135
-30 -203 -33 -234 -11 -30 21 -78 220 -69 289 11 95 74 165 213 235 123 62
217 70 480 45 34 -4 78 -3 98 0 46 9 102 65 111 111 9 50 23 34 69 -76z"/>
</g>
</svg>
